<svg width="44.001" height="44" viewBox="0 0 44.001 44">
  <defs>
    <clipPath id="clip-path">
      <rect id="Rectangle_8976" width="44" height="44" rx="8" fill="#ffffff" stroke="#ffffff" stroke-width="12"/>
    </clipPath>
    <linearGradient id="linear-gradient" x1="0.977" y1="0.546" x2="-0.518" y2="0.345" gradientUnits="objectBoundingBox">
      <stop offset="0" stop-color="#21c1f3" stop-opacity="0"/>
      <stop offset="1" stop-color="#21c1f3"/>
    </linearGradient>
    <linearGradient id="linear-gradient-2" x1="0.754" y1="0.542" x2="0.184" y2="0.576" gradientUnits="objectBoundingBox">
      <stop offset="0" stop-color="#1f94ff"/>
      <stop offset="1" stop-color="#0456d8"/>
    </linearGradient>
    <linearGradient id="linear-gradient-3" x1="0.753" y1="0.383" x2="0.258" y2="0.423" xlink:href="#linear-gradient"/>
    <linearGradient id="linear-gradient-5" x1="0.977" y1="0.546" x2="0.5" y2="0.5" gradientUnits="objectBoundingBox">
      <stop offset="0" stop-color="#6adcff" stop-opacity="0"/>
      <stop offset="1" stop-color="#21c1f3"/>
    </linearGradient>
  </defs>
  <rect width="44" height="44" rx="8" fill="#021d52"/>
  <g transform="translate(-532.999 5674)">
    <g transform="translate(0 0)">
      <path d="M2.989-.018l27.7-.006a3.007,3.007,0,0,1,0,6.014L2.988,6a3.007,3.007,0,0,1,0-6.014Z" transform="translate(21.121 35.574) rotate(-45)" opacity="0.3" fill="url(#linear-gradient)"/>
      <path d="M2.989-.018l27.7-.006a3.007,3.007,0,0,1,0,6.014L2.988,6a3.007,3.007,0,0,1,0-6.014Z" transform="translate(10.493 46.208) rotate(-45)" fill="url(#linear-gradient-2)"/>
      <path d="M2.989-.018,44.9-.027a3.007,3.007,0,1,1,0,6.014L2.988,6a3.007,3.007,0,0,1,0-6.014Z" transform="translate(8.947 31.902) rotate(-45)" opacity="0.3" fill="url(#linear-gradient-3)"/>
      <path d="M2.989-.018l27.7-.006a3.007,3.007,0,1,1,0,6.014L2.988,6a3.007,3.007,0,0,1,0-6.014Z" transform="translate(-4.773 45.628) rotate(-45)" fill="url(#linear-gradient-2)"/>
      <path d="M2.989-.018l27.7-.006a3.007,3.007,0,1,1,0,6.014L2.988,6a3.007,3.007,0,0,1,0-6.014Z" transform="translate(5.855 18.755) rotate(-45)" opacity="0.2" fill="url(#linear-gradient-5)"/>
      <path d="M2.989-.018l27.7-.006a3.007,3.007,0,1,1,0,6.014L2.988,6a3.007,3.007,0,0,1,0-6.014Z" transform="translate(-5.16 29.775) rotate(-45)" fill="url(#linear-gradient-2)"/>
    </g>
  </g>
</svg>
